<?xml version="1.0" encoding="UTF-8"?>
<svg xmlns="http://www.w3.org/2000/svg" width="760" height="320" viewBox="0 0 760 320" role="img" aria-label="Decomp progress over time">
  <title>Decomp progress over time</title>
  <rect width="100%" height="100%" fill="#ffffff"/>
  <rect x="48" y="24" width="688" height="240" fill="#fafafa" stroke="#dddddd"/>
  <line x1="48" y1="264.00" x2="736" y2="264.00" stroke="#eeeeee"/>
  <text x="40" y="268.00" text-anchor="end" font-family="DejaVu Sans,Verdana,Geneva,sans-serif" font-size="11" fill="#666666">0%</text>
  <line x1="48" y1="204.00" x2="736" y2="204.00" stroke="#eeeeee"/>
  <text x="40" y="208.00" text-anchor="end" font-family="DejaVu Sans,Verdana,Geneva,sans-serif" font-size="11" fill="#666666">12%</text>
  <line x1="48" y1="144.00" x2="736" y2="144.00" stroke="#eeeeee"/>
  <text x="40" y="148.00" text-anchor="end" font-family="DejaVu Sans,Verdana,Geneva,sans-serif" font-size="11" fill="#666666">25%</text>
  <line x1="48" y1="84.00" x2="736" y2="84.00" stroke="#eeeeee"/>
  <text x="40" y="88.00" text-anchor="end" font-family="DejaVu Sans,Verdana,Geneva,sans-serif" font-size="11" fill="#666666">38%</text>
  <line x1="48" y1="24.00" x2="736" y2="24.00" stroke="#eeeeee"/>
  <text x="40" y="28.00" text-anchor="end" font-family="DejaVu Sans,Verdana,Geneva,sans-serif" font-size="11" fill="#666666">50%</text>
  <line x1="48.00" y1="264" x2="48.00" y2="268" stroke="#aaaaaa"/>
  <text x="48.00" y="282" text-anchor="middle" font-family="DejaVu Sans,Verdana,Geneva,sans-serif" font-size="10" fill="#666666">2020-12</text>
  <line x1="146.29" y1="264" x2="146.29" y2="268" stroke="#aaaaaa"/>
  <text x="146.29" y="282" text-anchor="middle" font-family="DejaVu Sans,Verdana,Geneva,sans-serif" font-size="10" fill="#666666">2021-10</text>
  <line x1="244.57" y1="264" x2="244.57" y2="268" stroke="#aaaaaa"/>
  <text x="244.57" y="282" text-anchor="middle" font-family="DejaVu Sans,Verdana,Geneva,sans-serif" font-size="10" fill="#666666">2022-07</text>
  <line x1="342.86" y1="264" x2="342.86" y2="268" stroke="#aaaaaa"/>
  <text x="342.86" y="282" text-anchor="middle" font-family="DejaVu Sans,Verdana,Geneva,sans-serif" font-size="10" fill="#666666">2023-05</text>
  <line x1="441.14" y1="264" x2="441.14" y2="268" stroke="#aaaaaa"/>
  <text x="441.14" y="282" text-anchor="middle" font-family="DejaVu Sans,Verdana,Geneva,sans-serif" font-size="10" fill="#666666">2024-02</text>
  <line x1="539.43" y1="264" x2="539.43" y2="268" stroke="#aaaaaa"/>
  <text x="539.43" y="282" text-anchor="middle" font-family="DejaVu Sans,Verdana,Geneva,sans-serif" font-size="10" fill="#666666">2024-12</text>
  <line x1="637.71" y1="264" x2="637.71" y2="268" stroke="#aaaaaa"/>
  <text x="637.71" y="282" text-anchor="middle" font-family="DejaVu Sans,Verdana,Geneva,sans-serif" font-size="10" fill="#666666">2025-09</text>
  <line x1="736.00" y1="264" x2="736.00" y2="268" stroke="#aaaaaa"/>
  <text x="736.00" y="282" text-anchor="middle" font-family="DejaVu Sans,Verdana,Geneva,sans-serif" font-size="10" fill="#666666">2026-07</text>
  <line x1="59.01" y1="24" x2="59.01" y2="264" stroke="#999999" stroke-width="1" stroke-dasharray="4 3"/>
  <text x="63.01" y="36" font-family="DejaVu Sans,Verdana,Geneva,sans-serif" font-size="9" fill="#666666">metric change</text>
  <line x1="618.24" y1="24" x2="618.24" y2="264" stroke="#999999" stroke-width="1" stroke-dasharray="4 3"/>
  <text x="622.24" y="36" font-family="DejaVu Sans,Verdana,Geneva,sans-serif" font-size="9" fill="#666666">metric change</text>
  <polyline fill="none" stroke="#4c78a8" stroke-width="2" points="48.00,258.10 51.64,256.75 52.33,253.58 54.58,252.77 55.41,252.67 56.60,249.50 57.64,249.26 58.42,248.40 58.59,248.40 58.70,248.06"/>
  <circle cx="58.70" cy="248.06" r="3" fill="#4c78a8"/>
  <polyline fill="none" stroke="#4c78a8" stroke-width="2" points="59.01,240.62 59.17,240.29 59.37,240.29 59.46,239.95 59.78,239.66 60.28,239.09 60.77,237.17 61.80,239.18 61.80,239.18 62.13,239.09 63.16,238.13 64.43,236.98 64.43,236.98 64.77,236.88 65.37,236.11 69.56,235.68 125.47,235.68 125.47,235.68 134.76,235.63 135.49,235.58 618.01,235.58 618.03,235.58 618.03,235.49 618.18,235.49 618.24,235.49"/>
  <circle cx="618.24" cy="235.49" r="3" fill="#4c78a8"/>
  <polyline fill="none" stroke="#4c78a8" stroke-width="2" points="618.24,225.22 618.39,225.22 712.60,225.22 729.42,224.98 735.47,222.48 735.81,221.81 736.00,221.14"/>
  <circle cx="736.00" cy="221.14" r="3" fill="#4c78a8"/>
  <polyline fill="none" stroke="#f58518" stroke-width="2" points="48.00,264.00 51.64,264.00 52.33,264.00 54.58,264.00 55.41,264.00 56.60,264.00 57.64,264.00 58.42,264.00 58.59,264.00 58.70,264.00"/>
  <circle cx="58.70" cy="264.00" r="3" fill="#f58518"/>
  <polyline fill="none" stroke="#f58518" stroke-width="2" points="59.01,151.44 59.17,151.44 59.37,151.44 59.46,151.44 59.78,151.44 60.28,151.44 60.77,151.44 61.80,181.97 61.80,181.97 62.13,181.97 63.16,177.22 64.43,175.20 64.43,175.20 64.77,175.20 65.37,170.35 69.56,168.72 125.47,168.72 125.47,168.72 134.76,168.72 135.49,168.72 618.01,168.72 618.03,168.72 618.03,167.23 618.18,167.23 618.24,167.23"/>
  <circle cx="618.24" cy="167.23" r="3" fill="#f58518"/>
  <polyline fill="none" stroke="#f58518" stroke-width="2" points="618.24,114.77 618.39,114.77 712.60,114.77 729.42,114.77 735.47,88.03 735.81,79.06 736.00,69.41"/>
  <circle cx="736.00" cy="69.41" r="3" fill="#f58518"/>
  <polyline fill="none" stroke="#e45756" stroke-width="2" points="48.00,258.10 51.64,256.75 52.33,253.58 54.58,252.77 55.41,252.67 56.60,249.50 57.64,249.26 58.42,248.40 58.59,248.40 58.70,248.06"/>
  <circle cx="58.70" cy="248.06" r="3" fill="#e45756"/>
  <polyline fill="none" stroke="#e45756" stroke-width="2" points="59.01,248.06 59.17,247.68 59.37,247.68 59.46,247.30 59.78,247.01 60.28,246.38 60.77,244.27 61.80,244.08 61.80,244.08 62.13,243.94 63.16,243.31 64.43,242.21 64.43,242.21 64.77,242.11 65.37,241.63 69.56,241.30 125.47,241.30 125.47,241.30 134.76,241.30 135.49,241.20 618.01,241.20 618.03,241.20 618.03,241.20 618.18,241.20 618.24,241.20"/>
  <circle cx="618.24" cy="241.20" r="3" fill="#e45756"/>
  <polyline fill="none" stroke="#e45756" stroke-width="2" points="618.24,235.44 618.39,235.44 712.60,235.44 729.42,235.15 735.47,234.58 735.81,234.58 736.00,234.58"/>
  <circle cx="736.00" cy="234.58" r="3" fill="#e45756"/>
  <polyline fill="none" stroke="#54a24b" stroke-width="2" points="48.00,264.00 51.64,264.00 52.33,264.00 54.58,264.00 55.41,264.00 56.60,264.00 57.64,264.00 58.42,264.00 58.59,264.00 58.70,264.00"/>
  <circle cx="58.70" cy="264.00" r="3" fill="#54a24b"/>
  <polyline fill="none" stroke="#54a24b" stroke-width="2" points="59.01,186.82 59.17,186.82 59.37,186.82 59.46,186.82 59.78,186.82 60.28,186.82 60.77,186.82 61.80,186.82 61.80,186.82 62.13,186.82 63.16,186.82 64.43,186.82 64.43,186.82 64.77,186.82 65.37,186.82 69.56,186.82 125.47,186.82 125.47,186.82 134.76,186.82 135.49,186.82 618.01,186.82 618.03,186.82 618.03,186.82 618.18,186.82 618.24,186.82"/>
  <circle cx="618.24" cy="186.82" r="3" fill="#54a24b"/>
  <polyline fill="none" stroke="#54a24b" stroke-width="2" points="618.24,70.08 618.39,70.08 712.60,70.08 729.42,70.08 735.47,70.08 735.81,70.08 736.00,70.08"/>
  <circle cx="736.00" cy="70.08" r="3" fill="#54a24b"/>
  <rect x="48" y="293" width="12" height="12" fill="#4c78a8"/>
  <text x="64" y="302" font-family="DejaVu Sans,Verdana,Geneva,sans-serif" font-size="12" fill="#333333">total</text>
  <rect x="138" y="293" width="12" height="12" fill="#f58518"/>
  <text x="154" y="302" font-family="DejaVu Sans,Verdana,Geneva,sans-serif" font-size="12" fill="#333333">init</text>
  <rect x="228" y="293" width="12" height="12" fill="#e45756"/>
  <text x="244" y="302" font-family="DejaVu Sans,Verdana,Geneva,sans-serif" font-size="12" fill="#333333">game</text>
  <rect x="318" y="293" width="12" height="12" fill="#54a24b"/>
  <text x="334" y="302" font-family="DejaVu Sans,Verdana,Geneva,sans-serif" font-size="12" fill="#333333">debugger</text>
</svg>
