<?xml version="1.0" encoding="UTF-8"?>
<svg xmlns="http://www.w3.org/2000/svg" width="760" height="320" viewBox="0 0 760 320" role="img" aria-label="Decomp progress over time">
  <title>Decomp progress over time</title>
  <rect width="100%" height="100%" fill="#ffffff"/>
  <rect x="48" y="24" width="688" height="240" fill="#fafafa" stroke="#dddddd"/>
  <line x1="48" y1="264.00" x2="736" y2="264.00" stroke="#eeeeee"/>
  <text x="40" y="268.00" text-anchor="end" font-family="DejaVu Sans,Verdana,Geneva,sans-serif" font-size="11" fill="#666666">0%</text>
  <line x1="48" y1="204.00" x2="736" y2="204.00" stroke="#eeeeee"/>
  <text x="40" y="208.00" text-anchor="end" font-family="DejaVu Sans,Verdana,Geneva,sans-serif" font-size="11" fill="#666666">12%</text>
  <line x1="48" y1="144.00" x2="736" y2="144.00" stroke="#eeeeee"/>
  <text x="40" y="148.00" text-anchor="end" font-family="DejaVu Sans,Verdana,Geneva,sans-serif" font-size="11" fill="#666666">25%</text>
  <line x1="48" y1="84.00" x2="736" y2="84.00" stroke="#eeeeee"/>
  <text x="40" y="88.00" text-anchor="end" font-family="DejaVu Sans,Verdana,Geneva,sans-serif" font-size="11" fill="#666666">38%</text>
  <line x1="48" y1="24.00" x2="736" y2="24.00" stroke="#eeeeee"/>
  <text x="40" y="28.00" text-anchor="end" font-family="DejaVu Sans,Verdana,Geneva,sans-serif" font-size="11" fill="#666666">50%</text>
  <line x1="48.00" y1="264" x2="48.00" y2="268" stroke="#aaaaaa"/>
  <text x="48.00" y="282" text-anchor="middle" font-family="DejaVu Sans,Verdana,Geneva,sans-serif" font-size="10" fill="#666666">2020-12</text>
  <line x1="146.29" y1="264" x2="146.29" y2="268" stroke="#aaaaaa"/>
  <text x="146.29" y="282" text-anchor="middle" font-family="DejaVu Sans,Verdana,Geneva,sans-serif" font-size="10" fill="#666666">2021-10</text>
  <line x1="244.57" y1="264" x2="244.57" y2="268" stroke="#aaaaaa"/>
  <text x="244.57" y="282" text-anchor="middle" font-family="DejaVu Sans,Verdana,Geneva,sans-serif" font-size="10" fill="#666666">2022-07</text>
  <line x1="342.86" y1="264" x2="342.86" y2="268" stroke="#aaaaaa"/>
  <text x="342.86" y="282" text-anchor="middle" font-family="DejaVu Sans,Verdana,Geneva,sans-serif" font-size="10" fill="#666666">2023-05</text>
  <line x1="441.14" y1="264" x2="441.14" y2="268" stroke="#aaaaaa"/>
  <text x="441.14" y="282" text-anchor="middle" font-family="DejaVu Sans,Verdana,Geneva,sans-serif" font-size="10" fill="#666666">2024-02</text>
  <line x1="539.43" y1="264" x2="539.43" y2="268" stroke="#aaaaaa"/>
  <text x="539.43" y="282" text-anchor="middle" font-family="DejaVu Sans,Verdana,Geneva,sans-serif" font-size="10" fill="#666666">2024-12</text>
  <line x1="637.71" y1="264" x2="637.71" y2="268" stroke="#aaaaaa"/>
  <text x="637.71" y="282" text-anchor="middle" font-family="DejaVu Sans,Verdana,Geneva,sans-serif" font-size="10" fill="#666666">2025-09</text>
  <line x1="736.00" y1="264" x2="736.00" y2="268" stroke="#aaaaaa"/>
  <text x="736.00" y="282" text-anchor="middle" font-family="DejaVu Sans,Verdana,Geneva,sans-serif" font-size="10" fill="#666666">2026-07</text>
  <polyline fill="none" stroke="#4c78a8" stroke-width="2" points="48.00,258.10 51.67,256.75 52.36,253.58 54.63,252.77 55.46,252.67 56.66,249.50 57.72,249.26 58.50,248.40 58.67,248.40 58.77,248.06 59.09,240.62 59.25,240.29 59.45,240.29 59.54,239.95 59.86,239.66 60.37,239.09 60.86,237.17 61.90,239.18 61.90,239.18 62.23,239.09 63.28,238.13 64.55,236.98 64.55,236.98 64.90,236.88 65.50,236.11 69.72,235.68 126.04,235.68 126.04,235.68 135.40,235.63 136.13,235.58 622.19,235.58 622.21,235.58 622.21,235.49 622.36,235.49 622.42,235.49 622.42,225.22 622.57,225.22 717.48,225.22 736.00,224.98"/>
  <circle cx="736.00" cy="224.98" r="3" fill="#4c78a8"/>
  <polyline fill="none" stroke="#f58518" stroke-width="2" points="48.00,264.00 51.67,264.00 52.36,264.00 54.63,264.00 55.46,264.00 56.66,264.00 57.72,264.00 58.50,264.00 58.67,264.00 58.77,264.00 59.09,151.44 59.25,151.44 59.45,151.44 59.54,151.44 59.86,151.44 60.37,151.44 60.86,151.44 61.90,181.97 61.90,181.97 62.23,181.97 63.28,177.22 64.55,175.20 64.55,175.20 64.90,175.20 65.50,170.35 69.72,168.72 126.04,168.72 126.04,168.72 135.40,168.72 136.13,168.72 622.19,168.72 622.21,168.72 622.21,167.23 622.36,167.23 622.42,167.23 622.42,114.77 622.57,114.77 717.48,114.77 736.00,114.77"/>
  <circle cx="736.00" cy="114.77" r="3" fill="#f58518"/>
  <polyline fill="none" stroke="#e45756" stroke-width="2" points="48.00,258.10 51.67,256.75 52.36,253.58 54.63,252.77 55.46,252.67 56.66,249.50 57.72,249.26 58.50,248.40 58.67,248.40 58.77,248.06 59.09,248.06 59.25,247.68 59.45,247.68 59.54,247.30 59.86,247.01 60.37,246.38 60.86,244.27 61.90,244.08 61.90,244.08 62.23,243.94 63.28,243.31 64.55,242.21 64.55,242.21 64.90,242.11 65.50,241.63 69.72,241.30 126.04,241.30 126.04,241.30 135.40,241.30 136.13,241.20 622.19,241.20 622.21,241.20 622.21,241.20 622.36,241.20 622.42,241.20 622.42,235.44 622.57,235.44 717.48,235.44 736.00,235.15"/>
  <circle cx="736.00" cy="235.15" r="3" fill="#e45756"/>
  <polyline fill="none" stroke="#54a24b" stroke-width="2" points="48.00,264.00 51.67,264.00 52.36,264.00 54.63,264.00 55.46,264.00 56.66,264.00 57.72,264.00 58.50,264.00 58.67,264.00 58.77,264.00 59.09,186.82 59.25,186.82 59.45,186.82 59.54,186.82 59.86,186.82 60.37,186.82 60.86,186.82 61.90,186.82 61.90,186.82 62.23,186.82 63.28,186.82 64.55,186.82 64.55,186.82 64.90,186.82 65.50,186.82 69.72,186.82 126.04,186.82 126.04,186.82 135.40,186.82 136.13,186.82 622.19,186.82 622.21,186.82 622.21,186.82 622.36,186.82 622.42,186.82 622.42,70.08 622.57,70.08 717.48,70.08 736.00,70.08"/>
  <circle cx="736.00" cy="70.08" r="3" fill="#54a24b"/>
  <rect x="48" y="293" width="12" height="12" fill="#4c78a8"/>
  <text x="64" y="302" font-family="DejaVu Sans,Verdana,Geneva,sans-serif" font-size="12" fill="#333333">total</text>
  <rect x="138" y="293" width="12" height="12" fill="#f58518"/>
  <text x="154" y="302" font-family="DejaVu Sans,Verdana,Geneva,sans-serif" font-size="12" fill="#333333">init</text>
  <rect x="228" y="293" width="12" height="12" fill="#e45756"/>
  <text x="244" y="302" font-family="DejaVu Sans,Verdana,Geneva,sans-serif" font-size="12" fill="#333333">game</text>
  <rect x="318" y="293" width="12" height="12" fill="#54a24b"/>
  <text x="334" y="302" font-family="DejaVu Sans,Verdana,Geneva,sans-serif" font-size="12" fill="#333333">debugger</text>
</svg>
