<?xml version="1.0" encoding="UTF-8"?>
<svg xmlns="http://www.w3.org/2000/svg" width="760" height="320" viewBox="0 0 760 320" role="img" aria-label="Decomp progress over time">
  <title>Decomp progress over time</title>
  <rect width="100%" height="100%" fill="#ffffff"/>
  <rect x="48" y="24" width="688" height="240" fill="#fafafa" stroke="#dddddd"/>
  <line x1="48" y1="264.00" x2="736" y2="264.00" stroke="#eeeeee"/>
  <text x="40" y="268.00" text-anchor="end" font-family="DejaVu Sans,Verdana,Geneva,sans-serif" font-size="11" fill="#666666">0%</text>
  <line x1="48" y1="204.00" x2="736" y2="204.00" stroke="#eeeeee"/>
  <text x="40" y="208.00" text-anchor="end" font-family="DejaVu Sans,Verdana,Geneva,sans-serif" font-size="11" fill="#666666">12%</text>
  <line x1="48" y1="144.00" x2="736" y2="144.00" stroke="#eeeeee"/>
  <text x="40" y="148.00" text-anchor="end" font-family="DejaVu Sans,Verdana,Geneva,sans-serif" font-size="11" fill="#666666">25%</text>
  <line x1="48" y1="84.00" x2="736" y2="84.00" stroke="#eeeeee"/>
  <text x="40" y="88.00" text-anchor="end" font-family="DejaVu Sans,Verdana,Geneva,sans-serif" font-size="11" fill="#666666">38%</text>
  <line x1="48" y1="24.00" x2="736" y2="24.00" stroke="#eeeeee"/>
  <text x="40" y="28.00" text-anchor="end" font-family="DejaVu Sans,Verdana,Geneva,sans-serif" font-size="11" fill="#666666">50%</text>
  <line x1="48.00" y1="264" x2="48.00" y2="268" stroke="#aaaaaa"/>
  <text x="48.00" y="282" text-anchor="middle" font-family="DejaVu Sans,Verdana,Geneva,sans-serif" font-size="10" fill="#666666">2020-12</text>
  <line x1="146.29" y1="264" x2="146.29" y2="268" stroke="#aaaaaa"/>
  <text x="146.29" y="282" text-anchor="middle" font-family="DejaVu Sans,Verdana,Geneva,sans-serif" font-size="10" fill="#666666">2021-09</text>
  <line x1="244.57" y1="264" x2="244.57" y2="268" stroke="#aaaaaa"/>
  <text x="244.57" y="282" text-anchor="middle" font-family="DejaVu Sans,Verdana,Geneva,sans-serif" font-size="10" fill="#666666">2022-07</text>
  <line x1="342.86" y1="264" x2="342.86" y2="268" stroke="#aaaaaa"/>
  <text x="342.86" y="282" text-anchor="middle" font-family="DejaVu Sans,Verdana,Geneva,sans-serif" font-size="10" fill="#666666">2023-05</text>
  <line x1="441.14" y1="264" x2="441.14" y2="268" stroke="#aaaaaa"/>
  <text x="441.14" y="282" text-anchor="middle" font-family="DejaVu Sans,Verdana,Geneva,sans-serif" font-size="10" fill="#666666">2024-02</text>
  <line x1="539.43" y1="264" x2="539.43" y2="268" stroke="#aaaaaa"/>
  <text x="539.43" y="282" text-anchor="middle" font-family="DejaVu Sans,Verdana,Geneva,sans-serif" font-size="10" fill="#666666">2024-11</text>
  <line x1="637.71" y1="264" x2="637.71" y2="268" stroke="#aaaaaa"/>
  <text x="637.71" y="282" text-anchor="middle" font-family="DejaVu Sans,Verdana,Geneva,sans-serif" font-size="10" fill="#666666">2025-09</text>
  <line x1="736.00" y1="264" x2="736.00" y2="268" stroke="#aaaaaa"/>
  <text x="736.00" y="282" text-anchor="middle" font-family="DejaVu Sans,Verdana,Geneva,sans-serif" font-size="10" fill="#666666">2026-06</text>
  <line x1="59.12" y1="24" x2="59.12" y2="264" stroke="#999999" stroke-width="1" stroke-dasharray="4 3"/>
  <text x="63.12" y="36" font-family="DejaVu Sans,Verdana,Geneva,sans-serif" font-size="9" fill="#666666">metric change</text>
  <line x1="623.74" y1="24" x2="623.74" y2="264" stroke="#999999" stroke-width="1" stroke-dasharray="4 3"/>
  <text x="627.74" y="36" font-family="DejaVu Sans,Verdana,Geneva,sans-serif" font-size="9" fill="#666666">metric change</text>
  <polyline fill="none" stroke="#4c78a8" stroke-width="2" points="48.00,258.10 51.68,256.75 52.37,253.58 54.64,252.77 55.48,252.67 56.68,249.50 57.74,249.26 58.52,248.40 58.69,248.40 58.80,248.06"/>
  <circle cx="58.80" cy="248.06" r="3" fill="#4c78a8"/>
  <polyline fill="none" stroke="#4c78a8" stroke-width="2" points="59.12,240.62 59.28,240.29 59.48,240.29 59.57,239.95 59.89,239.66 60.40,239.09 60.89,237.17 61.93,239.18 61.94,239.18 62.27,239.09 63.31,238.13 64.59,236.98 64.59,236.98 64.93,236.88 65.54,236.11 69.77,235.68 126.22,235.68 126.22,235.68 135.60,235.63 136.34,235.58 623.51,235.58 623.53,235.58 623.53,235.49 623.68,235.49 623.74,235.49"/>
  <circle cx="623.74" cy="235.49" r="3" fill="#4c78a8"/>
  <polyline fill="none" stroke="#4c78a8" stroke-width="2" points="623.74,225.22 623.89,225.22 719.02,225.22 736.00,224.98"/>
  <circle cx="736.00" cy="224.98" r="3" fill="#4c78a8"/>
  <polyline fill="none" stroke="#f58518" stroke-width="2" points="48.00,264.00 51.68,264.00 52.37,264.00 54.64,264.00 55.48,264.00 56.68,264.00 57.74,264.00 58.52,264.00 58.69,264.00 58.80,264.00"/>
  <circle cx="58.80" cy="264.00" r="3" fill="#f58518"/>
  <polyline fill="none" stroke="#f58518" stroke-width="2" points="59.12,151.44 59.28,151.44 59.48,151.44 59.57,151.44 59.89,151.44 60.40,151.44 60.89,151.44 61.93,181.97 61.94,181.97 62.27,181.97 63.31,177.22 64.59,175.20 64.59,175.20 64.93,175.20 65.54,170.35 69.77,168.72 126.22,168.72 126.22,168.72 135.60,168.72 136.34,168.72 623.51,168.72 623.53,168.72 623.53,167.23 623.68,167.23 623.74,167.23"/>
  <circle cx="623.74" cy="167.23" r="3" fill="#f58518"/>
  <polyline fill="none" stroke="#f58518" stroke-width="2" points="623.74,114.77 623.89,114.77 719.02,114.77 736.00,114.77"/>
  <circle cx="736.00" cy="114.77" r="3" fill="#f58518"/>
  <polyline fill="none" stroke="#e45756" stroke-width="2" points="48.00,258.10 51.68,256.75 52.37,253.58 54.64,252.77 55.48,252.67 56.68,249.50 57.74,249.26 58.52,248.40 58.69,248.40 58.80,248.06"/>
  <circle cx="58.80" cy="248.06" r="3" fill="#e45756"/>
  <polyline fill="none" stroke="#e45756" stroke-width="2" points="59.12,248.06 59.28,247.68 59.48,247.68 59.57,247.30 59.89,247.01 60.40,246.38 60.89,244.27 61.93,244.08 61.94,244.08 62.27,243.94 63.31,243.31 64.59,242.21 64.59,242.21 64.93,242.11 65.54,241.63 69.77,241.30 126.22,241.30 126.22,241.30 135.60,241.30 136.34,241.20 623.51,241.20 623.53,241.20 623.53,241.20 623.68,241.20 623.74,241.20"/>
  <circle cx="623.74" cy="241.20" r="3" fill="#e45756"/>
  <polyline fill="none" stroke="#e45756" stroke-width="2" points="623.74,235.44 623.89,235.44 719.02,235.44 736.00,235.15"/>
  <circle cx="736.00" cy="235.15" r="3" fill="#e45756"/>
  <polyline fill="none" stroke="#54a24b" stroke-width="2" points="48.00,264.00 51.68,264.00 52.37,264.00 54.64,264.00 55.48,264.00 56.68,264.00 57.74,264.00 58.52,264.00 58.69,264.00 58.80,264.00"/>
  <circle cx="58.80" cy="264.00" r="3" fill="#54a24b"/>
  <polyline fill="none" stroke="#54a24b" stroke-width="2" points="59.12,186.82 59.28,186.82 59.48,186.82 59.57,186.82 59.89,186.82 60.40,186.82 60.89,186.82 61.93,186.82 61.94,186.82 62.27,186.82 63.31,186.82 64.59,186.82 64.59,186.82 64.93,186.82 65.54,186.82 69.77,186.82 126.22,186.82 126.22,186.82 135.60,186.82 136.34,186.82 623.51,186.82 623.53,186.82 623.53,186.82 623.68,186.82 623.74,186.82"/>
  <circle cx="623.74" cy="186.82" r="3" fill="#54a24b"/>
  <polyline fill="none" stroke="#54a24b" stroke-width="2" points="623.74,70.08 623.89,70.08 719.02,70.08 736.00,70.08"/>
  <circle cx="736.00" cy="70.08" r="3" fill="#54a24b"/>
  <rect x="48" y="293" width="12" height="12" fill="#4c78a8"/>
  <text x="64" y="302" font-family="DejaVu Sans,Verdana,Geneva,sans-serif" font-size="12" fill="#333333">total</text>
  <rect x="138" y="293" width="12" height="12" fill="#f58518"/>
  <text x="154" y="302" font-family="DejaVu Sans,Verdana,Geneva,sans-serif" font-size="12" fill="#333333">init</text>
  <rect x="228" y="293" width="12" height="12" fill="#e45756"/>
  <text x="244" y="302" font-family="DejaVu Sans,Verdana,Geneva,sans-serif" font-size="12" fill="#333333">game</text>
  <rect x="318" y="293" width="12" height="12" fill="#54a24b"/>
  <text x="334" y="302" font-family="DejaVu Sans,Verdana,Geneva,sans-serif" font-size="12" fill="#333333">debugger</text>
</svg>
