<?xml version="1.0" encoding="UTF-8"?>
<svg xmlns="http://www.w3.org/2000/svg" width="760" height="320" viewBox="0 0 760 320" role="img" aria-label="Decomp progress over time">
  <title>Decomp progress over time</title>
  <rect width="100%" height="100%" fill="#ffffff"/>
  <rect x="48" y="24" width="688" height="240" fill="#fafafa" stroke="#dddddd"/>
  <line x1="48" y1="264.00" x2="736" y2="264.00" stroke="#eeeeee"/>
  <text x="40" y="268.00" text-anchor="end" font-family="DejaVu Sans,Verdana,Geneva,sans-serif" font-size="11" fill="#666666">0%</text>
  <line x1="48" y1="204.00" x2="736" y2="204.00" stroke="#eeeeee"/>
  <text x="40" y="208.00" text-anchor="end" font-family="DejaVu Sans,Verdana,Geneva,sans-serif" font-size="11" fill="#666666">12%</text>
  <line x1="48" y1="144.00" x2="736" y2="144.00" stroke="#eeeeee"/>
  <text x="40" y="148.00" text-anchor="end" font-family="DejaVu Sans,Verdana,Geneva,sans-serif" font-size="11" fill="#666666">25%</text>
  <line x1="48" y1="84.00" x2="736" y2="84.00" stroke="#eeeeee"/>
  <text x="40" y="88.00" text-anchor="end" font-family="DejaVu Sans,Verdana,Geneva,sans-serif" font-size="11" fill="#666666">38%</text>
  <line x1="48" y1="24.00" x2="736" y2="24.00" stroke="#eeeeee"/>
  <text x="40" y="28.00" text-anchor="end" font-family="DejaVu Sans,Verdana,Geneva,sans-serif" font-size="11" fill="#666666">50%</text>
  <line x1="48.00" y1="264" x2="48.00" y2="268" stroke="#aaaaaa"/>
  <text x="48.00" y="282" text-anchor="middle" font-family="DejaVu Sans,Verdana,Geneva,sans-serif" font-size="10" fill="#666666">2020-12</text>
  <line x1="146.29" y1="264" x2="146.29" y2="268" stroke="#aaaaaa"/>
  <text x="146.29" y="282" text-anchor="middle" font-family="DejaVu Sans,Verdana,Geneva,sans-serif" font-size="10" fill="#666666">2021-10</text>
  <line x1="244.57" y1="264" x2="244.57" y2="268" stroke="#aaaaaa"/>
  <text x="244.57" y="282" text-anchor="middle" font-family="DejaVu Sans,Verdana,Geneva,sans-serif" font-size="10" fill="#666666">2022-07</text>
  <line x1="342.86" y1="264" x2="342.86" y2="268" stroke="#aaaaaa"/>
  <text x="342.86" y="282" text-anchor="middle" font-family="DejaVu Sans,Verdana,Geneva,sans-serif" font-size="10" fill="#666666">2023-05</text>
  <line x1="441.14" y1="264" x2="441.14" y2="268" stroke="#aaaaaa"/>
  <text x="441.14" y="282" text-anchor="middle" font-family="DejaVu Sans,Verdana,Geneva,sans-serif" font-size="10" fill="#666666">2024-02</text>
  <line x1="539.43" y1="264" x2="539.43" y2="268" stroke="#aaaaaa"/>
  <text x="539.43" y="282" text-anchor="middle" font-family="DejaVu Sans,Verdana,Geneva,sans-serif" font-size="10" fill="#666666">2024-12</text>
  <line x1="637.71" y1="264" x2="637.71" y2="268" stroke="#aaaaaa"/>
  <text x="637.71" y="282" text-anchor="middle" font-family="DejaVu Sans,Verdana,Geneva,sans-serif" font-size="10" fill="#666666">2025-10</text>
  <line x1="736.00" y1="264" x2="736.00" y2="268" stroke="#aaaaaa"/>
  <text x="736.00" y="282" text-anchor="middle" font-family="DejaVu Sans,Verdana,Geneva,sans-serif" font-size="10" fill="#666666">2026-07</text>
  <line x1="58.98" y1="24" x2="58.98" y2="264" stroke="#999999" stroke-width="1" stroke-dasharray="4 3"/>
  <text x="62.98" y="36" font-family="DejaVu Sans,Verdana,Geneva,sans-serif" font-size="9" fill="#666666">metric change</text>
  <line x1="616.58" y1="24" x2="616.58" y2="264" stroke="#999999" stroke-width="1" stroke-dasharray="4 3"/>
  <text x="620.58" y="36" font-family="DejaVu Sans,Verdana,Geneva,sans-serif" font-size="9" fill="#666666">metric change</text>
  <polyline fill="none" stroke="#4c78a8" stroke-width="2" points="48.00,258.10 51.63,256.75 52.32,253.58 54.56,252.77 55.39,252.67 56.57,249.50 57.62,249.26 58.39,248.40 58.56,248.40 58.66,248.06"/>
  <circle cx="58.66" cy="248.06" r="3" fill="#4c78a8"/>
  <polyline fill="none" stroke="#4c78a8" stroke-width="2" points="58.98,240.62 59.14,240.29 59.33,240.29 59.42,239.95 59.74,239.66 60.24,239.09 60.73,237.17 61.76,239.18 61.76,239.18 62.09,239.09 63.12,238.13 64.38,236.98 64.39,236.98 64.72,236.88 65.32,236.11 69.50,235.68 125.24,235.68 125.25,235.68 134.51,235.63 135.24,235.58 616.35,235.58 616.37,235.58 616.37,235.49 616.52,235.49 616.58,235.49"/>
  <circle cx="616.58" cy="235.49" r="3" fill="#4c78a8"/>
  <polyline fill="none" stroke="#4c78a8" stroke-width="2" points="616.58,225.22 616.72,225.22 710.66,225.22 727.44,224.98 733.47,222.48 733.80,221.81 734.00,221.14 734.01,220.99 734.01,220.80 735.46,220.70 736.00,220.66"/>
  <circle cx="736.00" cy="220.66" r="3" fill="#4c78a8"/>
  <polyline fill="none" stroke="#f58518" stroke-width="2" points="48.00,264.00 51.63,264.00 52.32,264.00 54.56,264.00 55.39,264.00 56.57,264.00 57.62,264.00 58.39,264.00 58.56,264.00 58.66,264.00"/>
  <circle cx="58.66" cy="264.00" r="3" fill="#f58518"/>
  <polyline fill="none" stroke="#f58518" stroke-width="2" points="58.98,151.44 59.14,151.44 59.33,151.44 59.42,151.44 59.74,151.44 60.24,151.44 60.73,151.44 61.76,181.97 61.76,181.97 62.09,181.97 63.12,177.22 64.38,175.20 64.39,175.20 64.72,175.20 65.32,170.35 69.50,168.72 125.24,168.72 125.25,168.72 134.51,168.72 135.24,168.72 616.35,168.72 616.37,168.72 616.37,167.23 616.52,167.23 616.58,167.23"/>
  <circle cx="616.58" cy="167.23" r="3" fill="#f58518"/>
  <polyline fill="none" stroke="#f58518" stroke-width="2" points="616.58,114.77 616.72,114.77 710.66,114.77 727.44,114.77 733.47,88.03 733.80,79.06 734.00,69.41 734.01,69.41 734.01,67.01 735.46,65.18 736.00,64.94"/>
  <circle cx="736.00" cy="64.94" r="3" fill="#f58518"/>
  <polyline fill="none" stroke="#e45756" stroke-width="2" points="48.00,258.10 51.63,256.75 52.32,253.58 54.56,252.77 55.39,252.67 56.57,249.50 57.62,249.26 58.39,248.40 58.56,248.40 58.66,248.06"/>
  <circle cx="58.66" cy="248.06" r="3" fill="#e45756"/>
  <polyline fill="none" stroke="#e45756" stroke-width="2" points="58.98,248.06 59.14,247.68 59.33,247.68 59.42,247.30 59.74,247.01 60.24,246.38 60.73,244.27 61.76,244.08 61.76,244.08 62.09,243.94 63.12,243.31 64.38,242.21 64.39,242.21 64.72,242.11 65.32,241.63 69.50,241.30 125.24,241.30 125.25,241.30 134.51,241.30 135.24,241.20 616.35,241.20 616.37,241.20 616.37,241.20 616.52,241.20 616.58,241.20"/>
  <circle cx="616.58" cy="241.20" r="3" fill="#e45756"/>
  <polyline fill="none" stroke="#e45756" stroke-width="2" points="616.58,235.44 616.72,235.44 710.66,235.44 727.44,235.15 733.47,234.58 733.80,234.58 734.00,234.58 734.01,234.43 734.01,234.43 735.46,234.43 736.00,234.43"/>
  <circle cx="736.00" cy="234.43" r="3" fill="#e45756"/>
  <polyline fill="none" stroke="#54a24b" stroke-width="2" points="48.00,264.00 51.63,264.00 52.32,264.00 54.56,264.00 55.39,264.00 56.57,264.00 57.62,264.00 58.39,264.00 58.56,264.00 58.66,264.00"/>
  <circle cx="58.66" cy="264.00" r="3" fill="#54a24b"/>
  <polyline fill="none" stroke="#54a24b" stroke-width="2" points="58.98,186.82 59.14,186.82 59.33,186.82 59.42,186.82 59.74,186.82 60.24,186.82 60.73,186.82 61.76,186.82 61.76,186.82 62.09,186.82 63.12,186.82 64.38,186.82 64.39,186.82 64.72,186.82 65.32,186.82 69.50,186.82 125.24,186.82 125.25,186.82 134.51,186.82 135.24,186.82 616.35,186.82 616.37,186.82 616.37,186.82 616.52,186.82 616.58,186.82"/>
  <circle cx="616.58" cy="186.82" r="3" fill="#54a24b"/>
  <polyline fill="none" stroke="#54a24b" stroke-width="2" points="616.58,70.08 616.72,70.08 710.66,70.08 727.44,70.08 733.47,70.08 733.80,70.08 734.00,70.08 734.01,70.08 734.01,70.08 735.46,70.08 736.00,70.08"/>
  <circle cx="736.00" cy="70.08" r="3" fill="#54a24b"/>
  <rect x="48" y="293" width="12" height="12" fill="#4c78a8"/>
  <text x="64" y="302" font-family="DejaVu Sans,Verdana,Geneva,sans-serif" font-size="12" fill="#333333">total</text>
  <rect x="138" y="293" width="12" height="12" fill="#f58518"/>
  <text x="154" y="302" font-family="DejaVu Sans,Verdana,Geneva,sans-serif" font-size="12" fill="#333333">init</text>
  <rect x="228" y="293" width="12" height="12" fill="#e45756"/>
  <text x="244" y="302" font-family="DejaVu Sans,Verdana,Geneva,sans-serif" font-size="12" fill="#333333">game</text>
  <rect x="318" y="293" width="12" height="12" fill="#54a24b"/>
  <text x="334" y="302" font-family="DejaVu Sans,Verdana,Geneva,sans-serif" font-size="12" fill="#333333">debugger</text>
</svg>
