<?xml version="1.0" encoding="UTF-8"?>
<svg xmlns="http://www.w3.org/2000/svg" width="760" height="320" viewBox="0 0 760 320" role="img" aria-label="Decomp progress over time">
  <title>Decomp progress over time</title>
  <rect width="100%" height="100%" fill="#ffffff"/>
  <rect x="48" y="24" width="688" height="240" fill="#fafafa" stroke="#dddddd"/>
  <line x1="48" y1="264.00" x2="736" y2="264.00" stroke="#eeeeee"/>
  <text x="40" y="268.00" text-anchor="end" font-family="DejaVu Sans,Verdana,Geneva,sans-serif" font-size="11" fill="#666666">0%</text>
  <line x1="48" y1="204.00" x2="736" y2="204.00" stroke="#eeeeee"/>
  <text x="40" y="208.00" text-anchor="end" font-family="DejaVu Sans,Verdana,Geneva,sans-serif" font-size="11" fill="#666666">12%</text>
  <line x1="48" y1="144.00" x2="736" y2="144.00" stroke="#eeeeee"/>
  <text x="40" y="148.00" text-anchor="end" font-family="DejaVu Sans,Verdana,Geneva,sans-serif" font-size="11" fill="#666666">25%</text>
  <line x1="48" y1="84.00" x2="736" y2="84.00" stroke="#eeeeee"/>
  <text x="40" y="88.00" text-anchor="end" font-family="DejaVu Sans,Verdana,Geneva,sans-serif" font-size="11" fill="#666666">38%</text>
  <line x1="48" y1="24.00" x2="736" y2="24.00" stroke="#eeeeee"/>
  <text x="40" y="28.00" text-anchor="end" font-family="DejaVu Sans,Verdana,Geneva,sans-serif" font-size="11" fill="#666666">50%</text>
  <line x1="48.00" y1="264" x2="48.00" y2="268" stroke="#aaaaaa"/>
  <text x="48.00" y="282" text-anchor="middle" font-family="DejaVu Sans,Verdana,Geneva,sans-serif" font-size="10" fill="#666666">2020-12</text>
  <line x1="146.29" y1="264" x2="146.29" y2="268" stroke="#aaaaaa"/>
  <text x="146.29" y="282" text-anchor="middle" font-family="DejaVu Sans,Verdana,Geneva,sans-serif" font-size="10" fill="#666666">2021-10</text>
  <line x1="244.57" y1="264" x2="244.57" y2="268" stroke="#aaaaaa"/>
  <text x="244.57" y="282" text-anchor="middle" font-family="DejaVu Sans,Verdana,Geneva,sans-serif" font-size="10" fill="#666666">2022-07</text>
  <line x1="342.86" y1="264" x2="342.86" y2="268" stroke="#aaaaaa"/>
  <text x="342.86" y="282" text-anchor="middle" font-family="DejaVu Sans,Verdana,Geneva,sans-serif" font-size="10" fill="#666666">2023-05</text>
  <line x1="441.14" y1="264" x2="441.14" y2="268" stroke="#aaaaaa"/>
  <text x="441.14" y="282" text-anchor="middle" font-family="DejaVu Sans,Verdana,Geneva,sans-serif" font-size="10" fill="#666666">2024-02</text>
  <line x1="539.43" y1="264" x2="539.43" y2="268" stroke="#aaaaaa"/>
  <text x="539.43" y="282" text-anchor="middle" font-family="DejaVu Sans,Verdana,Geneva,sans-serif" font-size="10" fill="#666666">2024-12</text>
  <line x1="637.71" y1="264" x2="637.71" y2="268" stroke="#aaaaaa"/>
  <text x="637.71" y="282" text-anchor="middle" font-family="DejaVu Sans,Verdana,Geneva,sans-serif" font-size="10" fill="#666666">2025-10</text>
  <line x1="736.00" y1="264" x2="736.00" y2="268" stroke="#aaaaaa"/>
  <text x="736.00" y="282" text-anchor="middle" font-family="DejaVu Sans,Verdana,Geneva,sans-serif" font-size="10" fill="#666666">2026-07</text>
  <line x1="58.99" y1="24" x2="58.99" y2="264" stroke="#999999" stroke-width="1" stroke-dasharray="4 3"/>
  <text x="62.99" y="36" font-family="DejaVu Sans,Verdana,Geneva,sans-serif" font-size="9" fill="#666666">metric change</text>
  <line x1="617.02" y1="24" x2="617.02" y2="264" stroke="#999999" stroke-width="1" stroke-dasharray="4 3"/>
  <text x="621.02" y="36" font-family="DejaVu Sans,Verdana,Geneva,sans-serif" font-size="9" fill="#666666">metric change</text>
  <polyline fill="none" stroke="#4c78a8" stroke-width="2" points="48.00,258.10 51.63,256.75 52.32,253.58 54.56,252.77 55.39,252.67 56.58,249.50 57.62,249.26 58.40,248.40 58.57,248.40 58.67,248.06"/>
  <circle cx="58.67" cy="248.06" r="3" fill="#4c78a8"/>
  <polyline fill="none" stroke="#4c78a8" stroke-width="2" points="58.99,240.62 59.14,240.29 59.34,240.29 59.43,239.95 59.75,239.66 60.25,239.09 60.74,237.17 61.77,239.18 61.77,239.18 62.10,239.09 63.13,238.13 64.40,236.98 64.40,236.98 64.74,236.88 65.33,236.11 69.52,235.68 125.30,235.68 125.31,235.68 134.58,235.63 135.31,235.58 616.79,235.58 616.81,235.58 616.81,235.49 616.96,235.49 617.02,235.49"/>
  <circle cx="617.02" cy="235.49" r="3" fill="#4c78a8"/>
  <polyline fill="none" stroke="#4c78a8" stroke-width="2" points="617.02,225.22 617.17,225.22 711.18,225.22 727.97,224.98 734.00,222.48 734.34,221.81 734.54,221.14 734.54,220.99 734.55,220.80 736.00,220.70"/>
  <circle cx="736.00" cy="220.70" r="3" fill="#4c78a8"/>
  <polyline fill="none" stroke="#f58518" stroke-width="2" points="48.00,264.00 51.63,264.00 52.32,264.00 54.56,264.00 55.39,264.00 56.58,264.00 57.62,264.00 58.40,264.00 58.57,264.00 58.67,264.00"/>
  <circle cx="58.67" cy="264.00" r="3" fill="#f58518"/>
  <polyline fill="none" stroke="#f58518" stroke-width="2" points="58.99,151.44 59.14,151.44 59.34,151.44 59.43,151.44 59.75,151.44 60.25,151.44 60.74,151.44 61.77,181.97 61.77,181.97 62.10,181.97 63.13,177.22 64.40,175.20 64.40,175.20 64.74,175.20 65.33,170.35 69.52,168.72 125.30,168.72 125.31,168.72 134.58,168.72 135.31,168.72 616.79,168.72 616.81,168.72 616.81,167.23 616.96,167.23 617.02,167.23"/>
  <circle cx="617.02" cy="167.23" r="3" fill="#f58518"/>
  <polyline fill="none" stroke="#f58518" stroke-width="2" points="617.02,114.77 617.17,114.77 711.18,114.77 727.97,114.77 734.00,88.03 734.34,79.06 734.54,69.41 734.54,69.41 734.55,67.01 736.00,65.18"/>
  <circle cx="736.00" cy="65.18" r="3" fill="#f58518"/>
  <polyline fill="none" stroke="#e45756" stroke-width="2" points="48.00,258.10 51.63,256.75 52.32,253.58 54.56,252.77 55.39,252.67 56.58,249.50 57.62,249.26 58.40,248.40 58.57,248.40 58.67,248.06"/>
  <circle cx="58.67" cy="248.06" r="3" fill="#e45756"/>
  <polyline fill="none" stroke="#e45756" stroke-width="2" points="58.99,248.06 59.14,247.68 59.34,247.68 59.43,247.30 59.75,247.01 60.25,246.38 60.74,244.27 61.77,244.08 61.77,244.08 62.10,243.94 63.13,243.31 64.40,242.21 64.40,242.21 64.74,242.11 65.33,241.63 69.52,241.30 125.30,241.30 125.31,241.30 134.58,241.30 135.31,241.20 616.79,241.20 616.81,241.20 616.81,241.20 616.96,241.20 617.02,241.20"/>
  <circle cx="617.02" cy="241.20" r="3" fill="#e45756"/>
  <polyline fill="none" stroke="#e45756" stroke-width="2" points="617.02,235.44 617.17,235.44 711.18,235.44 727.97,235.15 734.00,234.58 734.34,234.58 734.54,234.58 734.54,234.43 734.55,234.43 736.00,234.43"/>
  <circle cx="736.00" cy="234.43" r="3" fill="#e45756"/>
  <polyline fill="none" stroke="#54a24b" stroke-width="2" points="48.00,264.00 51.63,264.00 52.32,264.00 54.56,264.00 55.39,264.00 56.58,264.00 57.62,264.00 58.40,264.00 58.57,264.00 58.67,264.00"/>
  <circle cx="58.67" cy="264.00" r="3" fill="#54a24b"/>
  <polyline fill="none" stroke="#54a24b" stroke-width="2" points="58.99,186.82 59.14,186.82 59.34,186.82 59.43,186.82 59.75,186.82 60.25,186.82 60.74,186.82 61.77,186.82 61.77,186.82 62.10,186.82 63.13,186.82 64.40,186.82 64.40,186.82 64.74,186.82 65.33,186.82 69.52,186.82 125.30,186.82 125.31,186.82 134.58,186.82 135.31,186.82 616.79,186.82 616.81,186.82 616.81,186.82 616.96,186.82 617.02,186.82"/>
  <circle cx="617.02" cy="186.82" r="3" fill="#54a24b"/>
  <polyline fill="none" stroke="#54a24b" stroke-width="2" points="617.02,70.08 617.17,70.08 711.18,70.08 727.97,70.08 734.00,70.08 734.34,70.08 734.54,70.08 734.54,70.08 734.55,70.08 736.00,70.08"/>
  <circle cx="736.00" cy="70.08" r="3" fill="#54a24b"/>
  <rect x="48" y="293" width="12" height="12" fill="#4c78a8"/>
  <text x="64" y="302" font-family="DejaVu Sans,Verdana,Geneva,sans-serif" font-size="12" fill="#333333">total</text>
  <rect x="138" y="293" width="12" height="12" fill="#f58518"/>
  <text x="154" y="302" font-family="DejaVu Sans,Verdana,Geneva,sans-serif" font-size="12" fill="#333333">init</text>
  <rect x="228" y="293" width="12" height="12" fill="#e45756"/>
  <text x="244" y="302" font-family="DejaVu Sans,Verdana,Geneva,sans-serif" font-size="12" fill="#333333">game</text>
  <rect x="318" y="293" width="12" height="12" fill="#54a24b"/>
  <text x="334" y="302" font-family="DejaVu Sans,Verdana,Geneva,sans-serif" font-size="12" fill="#333333">debugger</text>
</svg>
